<?xml version="1.0" standalone="no"?>
<!DOCTYPE svg PUBLIC "-//W3C//DTD SVG 1.1//EN" "http://www.w3.org/Graphics/SVG/1.1/DTD/svg11.dtd" >
<svg>
<metadata>
Created by FontForge 20090622 at Tue Nov 17 21:53:18 2015
 By deploy user
Copyright 2009-2012 Charles Borges, All rights reserved.
WARNING: Protected by FontGuard account encryption system. Reproduction or distribution of this copyrighted work is illegal.
</metadata>
<defs>
<font id="LHFGloria" horiz-adv-x="565" >
  <font-face 
    font-family="LHF Gloria"
    font-weight="400"
    font-stretch="normal"
    units-per-em="1000"
    panose-1="2 0 5 8 0 0 0 2 0 4"
    ascent="750"
    descent="-250"
    x-height="527"
    cap-height="527"
    bbox="-110 -167 843 717"
    underline-thickness="50"
    underline-position="-50"
    unicode-range="U+0020-U+FB02"
  />
<missing-glyph horiz-adv-x="157" 
 />
    <glyph glyph-name="fi" unicode="fi" horiz-adv-x="356" 
d="M92 261v-261h-67v527h188v-62h-121v-142h110v-62h-110zM331 527v-527h-68v527h68z" />
    <glyph glyph-name="fl" unicode="fl" horiz-adv-x="486" 
d="M92 261v-261h-67v527h188v-62h-121v-142h110v-62h-110zM461 0h-198v527h67v-466h131v-61z" />
    <glyph glyph-name=".notdef" horiz-adv-x="157" 
 />
    <glyph glyph-name=".null" horiz-adv-x="0" 
 />
    <glyph glyph-name="nonmarkingreturn" horiz-adv-x="333" 
 />
    <glyph glyph-name="space" unicode=" " horiz-adv-x="157" 
 />
    <glyph glyph-name="exclam" unicode="!" horiz-adv-x="135" 
d="M38 109l-5 418h68l-5 -418h-58zM30 31q0 16 11.5 27t26.5 11t26 -11t11 -27t-11 -26.5t-26 -10.5t-26.5 11t-11.5 26z" />
    <glyph glyph-name="quotedbl" unicode="&#x22;" horiz-adv-x="293" 
d="M30 349l65 178h68l-75 -178h-58zM130 349l65 178h68l-75 -178h-58z" />
    <glyph glyph-name="numbersign" unicode="#" horiz-adv-x="525" 
d="M141 535h37v-301l-111 183v-173h-37v300l111 -182v173zM495 389q0 -61 -43.5 -105t-105.5 -44t-105.5 44t-43.5 105t43.5 105t105.5 44t105.5 -44t43.5 -105zM346 503q-46 0 -77.5 -33.5t-31.5 -80.5t31.5 -80t77.5 -33t77.5 33t31.5 80t-31.5 80.5t-77.5 33.5zM30 181
v30h440v-30h-440z" />
    <glyph glyph-name="dollar" unicode="$" horiz-adv-x="259" 
d="M159 536l-1 -28q2 0 8 0.5t9 0.5q15 0 28.5 -3t19.5 -6l6 -3v-49q-19 17 -55 17q-7 0 -17 -2l-5 -152q21 -12 33 -20t23 -24.5t11 -36.5q0 -34 -20 -58.5t-53 -32.5v-37h-29v34q-31 0 -58 11v47q20 -14 52 -14h6v100q-27 14 -42 23.5t-30 32.5t-15 53q0 39 23.5 68.5
t63.5 42.5v36h42zM79 387q0 -32 38 -57v120q-38 -21 -38 -63zM170 230q-1 18 -22 31v-71q22 15 22 40z" />
    <glyph glyph-name="percent" unicode="%" horiz-adv-x="514" 
d="M243 394q0 -53 -33.5 -83.5t-77.5 -30.5q-45 0 -78.5 30.5t-33.5 83.5t33.5 84t78.5 31q44 0 77.5 -31t33.5 -84zM427 527l-270 -527h-68l270 527h68zM183 394q0 27 -15.5 43t-35.5 16q-21 0 -36.5 -15.5t-15.5 -43.5q0 -27 15.5 -42.5t36.5 -15.5q20 0 35.5 15.5
t15.5 42.5zM494 125q0 -53 -33.5 -83.5t-77.5 -30.5q-45 0 -78.5 30.5t-33.5 83.5t33.5 84t78.5 31q44 0 77.5 -31t33.5 -84zM434 125q0 27 -15.5 43t-35.5 16q-21 0 -36.5 -15.5t-15.5 -43.5q0 -27 15.5 -42.5t36.5 -15.5q20 0 35.5 15.5t15.5 42.5z" />
    <glyph glyph-name="ampersand" unicode="&#x26;" horiz-adv-x="429" 
d="M419 197l-1 -62q-15 -7 -39 -7q-14 0 -34 5q-9 -60 -54.5 -100t-109.5 -40q-66 0 -111 40t-45 105q0 38 17.5 72t43.5 49q-31 14 -53.5 47.5t-22.5 70.5q0 72 48.5 114t122.5 42q43 0 73 -11v-64q-34 11 -73 11q-38 0 -68.5 -24t-30.5 -68q0 -41 30 -65t69 -24h15v-58
h-15q-39 0 -61.5 -28.5t-22.5 -63.5q0 -38 24 -59.5t60 -21.5q38 0 65 25t29 68q-5 1 -13 1q-47 0 -77 -33v66q31 24 80 24q24 0 58 -10t52 -10q26 0 44 9z" />
    <glyph glyph-name="quotesingle" unicode="'" horiz-adv-x="193" 
d="M30 349l65 178h68l-75 -178h-58z" />
    <glyph glyph-name="parenleft" unicode="(" horiz-adv-x="253" 
d="M40 265h-30v62h30v200h188v-62h-121v-138h111v-62h-111v-265h-67v265z" />
    <glyph glyph-name="parenright" unicode=")" horiz-adv-x="319" 
d="M40 271h-30v62h30v194h67v-194h120v194h67v-527h-67v271h-120v-271h-67v271z" />
    <glyph glyph-name="asterisk" unicode="*" horiz-adv-x="263" 
d="M238 0h-198v267h-30v62h30v198h189v-62h-122v-136h115v-62h-115v-205h131v-62z" />
    <glyph glyph-name="plus" unicode="+" horiz-adv-x="310" 
d="M106 527l1 -228l113 228h75l-127 -252q26 -22 48 -70l94 -205h-72l-81 175q-23 50 -51 59v-234h-66v237h-30v62h30v228h66z" />
    <glyph glyph-name="comma" unicode="," horiz-adv-x="135" 
d="M54 -3q-24 9 -24 34q0 16 11.5 27t26.5 11t26 -11t11 -27q0 -23 -21.5 -43.5t-46.5 -30.5l-3 3q21 15 21 31z" />
    <glyph glyph-name="hyphen" unicode="-" horiz-adv-x="241" 
d="M211 273h-181v62h181v-62z" />
    <glyph glyph-name="period" unicode="." horiz-adv-x="115" 
d="M20 31q0 16 11.5 27t26.5 11t26 -11t11 -27t-11 -26.5t-26 -10.5t-26.5 11t-11.5 26z" />
    <glyph glyph-name="slash" unicode="/" horiz-adv-x="310" 
d="M108 243l125 284h77l-133 -285q108 -5 108 -111v-131h-68v131q0 49 -57 49h-52v-180h-68v180h-30v62h30v285h68v-284z" />
    <glyph glyph-name="zero" unicode="0" horiz-adv-x="528" 
d="M508 263q0 -125 -73 -197.5t-171 -72.5t-171 72.5t-73 197.5t73 197.5t171 72.5t171 -72.5t73 -197.5zM436 263q0 95 -51.5 150.5t-120.5 55.5t-120.5 -55.5t-51.5 -150.5t51.5 -150.5t120.5 -55.5t120.5 55.5t51.5 150.5z" />
    <glyph glyph-name="one" unicode="1" horiz-adv-x="200" 
d="M102 399l-72 -64v81l140 123v-539h-68v399z" />
    <glyph glyph-name="two" unicode="2" horiz-adv-x="401" 
d="M66 0q187 234 210 268q34 54 35 91q0 44 -31.5 77t-77.5 33t-79 -33.5t-33 -76.5q0 -86 82 -105l-43 -52q-109 44 -109 157q0 80 54 127t127 47q72 0 126 -47t54 -127q0 -52 -34.5 -108t-149.5 -188h149v-63h-280z" />
    <glyph glyph-name="three" unicode="3" horiz-adv-x="276" 
d="M30 458v64q28 11 63 11q66 0 111 -40t45 -105q0 -36 -16.5 -65t-41.5 -43q29 -13 47 -48.5t18 -74.5q0 -73 -50 -118t-123 -45q-16 0 -31.5 2t-23.5 4l-8 1v62q16 -5 46 -5q48 0 83 26.5t35 73.5q0 41 -26.5 66.5t-64.5 25.5h-15v60h15q34 0 59 23t25 55q0 39 -28 60
t-67 21q-8 0 -27.5 -4t-24.5 -7z" />
    <glyph glyph-name="four" unicode="4" horiz-adv-x="428" 
d="M276 127h-266l333 414v-352h65v-62h-65v-127h-67v127zM140 189h136v177z" />
    <glyph glyph-name="five" unicode="5" horiz-adv-x="302" 
d="M26 284l31 243h187v-58h-129l-14 -97q79 0 130 -52.5t51 -134.5t-59.5 -137t-140.5 -55l-62 7v65q21 -8 57 -8q53 0 93 36.5t40 91.5q0 53 -34.5 87.5t-81.5 34.5q-36 0 -68 -23z" />
    <glyph glyph-name="six" unicode="6" horiz-adv-x="403" 
d="M89 175q0 -50 31 -84t79 -34q49 0 81 34.5t32 83.5q0 50 -32 84.5t-81 34.5q-48 0 -79 -34.5t-31 -84.5zM111 318q16 18 43.5 29.5t53.5 11.5q70 0 122.5 -54.5t52.5 -129.5q0 -74 -54 -128t-130 -54q-77 0 -128 57.5t-51 138.5q0 78 29 150t91 125.5t145 62.5v-62
q-59 -5 -110.5 -53.5t-63.5 -93.5z" />
    <glyph glyph-name="seven" unicode="7" horiz-adv-x="339" 
d="M227 465h-207v62h299l-177 -527h-75z" />
    <glyph glyph-name="eight" unicode="8" horiz-adv-x="379" 
d="M35 389q0 60 44.5 102.5t108.5 42.5q65 0 110.5 -42.5t45.5 -102.5q0 -62 -54 -109q69 -50 69 -125q0 -67 -50 -114.5t-121 -47.5q-70 0 -119 47t-49 115q0 76 67 126q-52 45 -52 108zM92 155q0 -45 29 -71t68 -26t68.5 26t29.5 71q0 41 -30 66.5t-69 25.5q-38 0 -67 -26
t-29 -66zM107 389q0 -32 23.5 -55t57.5 -23t59 23t25 55q0 38 -25 59.5t-59 21.5q-33 0 -57 -21.5t-24 -59.5z" />
    <glyph glyph-name="nine" unicode="9" horiz-adv-x="405" 
d="M314 350q0 50 -31 84t-79 34q-49 0 -81 -34.5t-32 -83.5q0 -50 32 -84.5t81 -34.5q48 0 79 34.5t31 84.5zM292 207q-16 -19 -44 -29.5t-53 -10.5q-70 0 -122.5 54t-52.5 129q0 74 54 128t130 54q84 0 132.5 -58.5t48.5 -141.5q0 -85 -30 -159.5t-92.5 -123.5t-144.5 -49
v58q70 3 115 50.5t59 98.5z" />
    <glyph glyph-name="colon" unicode=":" horiz-adv-x="253" 
d="M40 180h-30v62h30v285h188v-62h-121v-223h111v-62h-111v-180h-67v180z" />
    <glyph glyph-name="semicolon" unicode=";" horiz-adv-x="263" 
d="M238 0h-198v180h-30v62h30v285h189v-62h-122v-223h115v-62h-115v-118h131v-62z" />
    <glyph glyph-name="less" unicode="&#x3c;" 
d="M553 263q0 -112 -79 -191t-191 -79q-10 0 -14 1q78 -17 98 -17q44 0 81 23v-85q-24 -10 -51 -10q-37 0 -111 28t-110 28q-27 0 -51 -10v26q36 24 80 24q10 0 15 -1q-91 22 -149.5 95t-58.5 168q0 112 79.5 191t191.5 79t191 -79t79 -191zM283 469q-83 0 -141 -60
t-58 -146t58 -146t141 -60q82 0 140 60t58 146t-58 146t-140 60z" />
    <glyph glyph-name="equal" unicode="=" horiz-adv-x="117" 
d="M25 60v467h67v-467q0 -71 -51.5 -122t-123.5 -51h-27v63q20 -1 29 -1q45 0 75.5 33t30.5 78z" />
    <glyph glyph-name="greater" unicode="&#x3e;" horiz-adv-x="315" 
d="M290 119q0 -54 -38.5 -90t-93.5 -36t-94 36t-39 90v408h67v-408q0 -27 19 -44.5t47 -17.5q26 0 45.5 18.5t19.5 43.5v408h67v-408z" />
    <glyph glyph-name="question" unicode="?" horiz-adv-x="312" 
d="M31 461l-1 62q30 10 65 10q75 0 131 -45.5t56 -128.5q0 -64 -38.5 -111t-109.5 -65v-72h-68v109q24 3 47.5 11.5t46.5 23.5t37.5 42t14.5 62q0 53 -37 81.5t-90 28.5q-31 0 -54 -8zM59 34q0 16 12.5 29t28.5 13t29 -13t13 -29t-13 -28.5t-29 -12.5t-28.5 12.5t-12.5 28.5
z" />
    <glyph glyph-name="at" unicode="@" horiz-adv-x="485" 
d="M284 347v14h40v-131q0 -43 34 -43q46 0 46 92q0 72 -40.5 118.5t-115.5 46.5q-71 0 -118.5 -49.5t-47.5 -123.5q0 -72 47.5 -121.5t118.5 -49.5q42 0 77 19l24 -38q-47 -26 -101 -26q-91 0 -154.5 63.5t-63.5 152.5q0 90 63.5 153.5t154.5 63.5q86 0 146.5 -56t60.5 -153
q0 -51 -23 -90t-71 -39q-30 0 -47.5 12t-28.5 40q-18 -26 -52 -26q-43 0 -67 28t-24 67t24 67.5t67 28.5q26 0 51 -20zM281 271q0 26 -14 41.5t-33 15.5q-17 0 -31 -15.5t-14 -41.5q0 -25 14 -40t31 -15q19 0 33 14.5t14 40.5z" />
    <glyph glyph-name="A" unicode="A" horiz-adv-x="360" 
d="M75 0h-75l180 545l180 -545h-74l-33 108h-145zM235 167l-55 179l-54 -179h109z" />
    <glyph glyph-name="B" unicode="B" horiz-adv-x="297" 
d="M25 527h102q62 0 108.5 -45.5t46.5 -115.5q0 -45 -17 -79.5t-33.5 -48t-32.5 -20.5q61 -35 61 -102q0 -48 -37.5 -82t-103.5 -34h-94v527zM113 463h-21v-215h26q4 0 10 1t22 8t28.5 18.5t22.5 35t10 54.5q0 43 -29 70.5t-69 27.5zM188 125q0 26 -18 43t-39 17h-39v-123
h41q2 0 6 0.5t13.5 4t16.5 9t13 18.5t6 31z" />
    <glyph glyph-name="C" unicode="C" horiz-adv-x="328" 
d="M84 260q0 -83 58.5 -140.5t142.5 -57.5h18v-62h-18q-113 0 -193 77t-80 187q0 109 80 186t193 77h18v-62h-18q-83 0 -142 -60.5t-59 -144.5z" />
    <glyph glyph-name="D" unicode="D" horiz-adv-x="367" 
d="M91 0h-66v527h67q107 -1 183.5 -78t76.5 -186t-76.5 -186t-184.5 -77zM280 263q0 84 -54 142.5t-134 59.5v-404q80 0 134 58.5t54 143.5z" />
    <glyph glyph-name="E" unicode="E" horiz-adv-x="248" 
d="M223 0h-198v527h188v-62h-121v-223h114v-62h-114v-118h131v-62z" />
    <glyph glyph-name="F" unicode="F" horiz-adv-x="238" 
d="M92 180v-180h-67v527h188v-62h-121v-223h114v-62h-114z" />
    <glyph glyph-name="G" unicode="G" horiz-adv-x="325" 
d="M282 527h18v-64h-18q-83 0 -140.5 -57.5t-57.5 -142.5q0 -72 42 -127.5t107 -72.5v117h-56v62h123v-242h-19q-112 0 -190.5 76t-78.5 187t79 187.5t191 76.5z" />
    <glyph glyph-name="H" unicode="H" horiz-adv-x="304" 
d="M279 527v-527h-67v180h-120v-180h-67v527h67v-285h120v285h67z" />
    <glyph glyph-name="I" unicode="I" horiz-adv-x="117" 
d="M92 527v-527h-67v527h67z" />
    <glyph glyph-name="J" unicode="J" horiz-adv-x="308" 
d="M79 197q17 -47 53 -80.5t84 -46.5v457h67v-527h-18q-92 0 -164 55.5t-96 141.5h74z" />
    <glyph glyph-name="K" unicode="K" horiz-adv-x="316" 
d="M292 0h-74l-126 192v-192h-67v527h67v-298l122 298h72l-129 -316z" />
    <glyph glyph-name="L" unicode="L" horiz-adv-x="248" 
d="M223 0h-198v527h67v-466h131v-61z" />
    <glyph glyph-name="M" unicode="M" horiz-adv-x="387" 
d="M194 148l-102 165v-313h-67v544l169 -275l168 275v-544h-67v313z" />
    <glyph glyph-name="N" unicode="N" horiz-adv-x="319" 
d="M227 527h67v-545l-202 331v-313h-67v544l202 -331v314z" />
    <glyph glyph-name="O" unicode="O" 
d="M553 263q0 -112 -79 -191t-191 -79t-191.5 79t-79.5 191t79.5 191t191.5 79t191 -79t79 -191zM283 469q-83 0 -141 -60t-58 -146t58 -146t141 -60q82 0 140 60t58 146t-58 146t-140 60z" />
    <glyph glyph-name="P" unicode="P" horiz-adv-x="297" 
d="M25 0v527h76q77 0 131.5 -50.5t54.5 -121.5q0 -72 -54.5 -124t-131.5 -52h-9v-179h-67zM101 465h-9v-223h9q48 0 81.5 32.5t33.5 79.5t-33.5 79t-81.5 32z" />
    <glyph glyph-name="Q" unicode="Q" 
d="M553 263q0 -101 -58 -167.5t-150 -92.5q66 -26 111 -26q30 0 56 11v-70q-23 -10 -54 -10q-19 0 -39 4t-30 8l-10 4q-81 37 -145 37q-33 0 -60 -8.5t-38 -17.5l-11 -9l-21 62q29 21 66 34q-158 79 -158 241q0 112 79.5 191t191.5 79t191 -79t79 -191zM283 469
q-83 0 -141 -60t-58 -146t58 -146t141 -60q82 0 140 60t58 146t-58 146t-140 60z" />
    <glyph glyph-name="R" unicode="R" horiz-adv-x="298" 
d="M92 197v-197h-67v527h76q77 0 132 -53t55 -129q0 -54 -30 -98t-79 -65l107 -182h-74zM92 224h9q47 0 81.5 35.5t34.5 85.5t-34 85t-82 35h-9v-241z" />
    <glyph glyph-name="S" unicode="S" horiz-adv-x="256" 
d="M225 527v-64q-13 3 -28 3q-44 0 -79 -24t-35 -65q0 -25 16 -47.5t38.5 -41l45.5 -39t39 -49.5t16 -64q0 -58 -48.5 -99t-116.5 -41q-30 1 -41 4v62l41 -3q39 0 66 23t27 57q0 24 -16 46t-39 40.5l-46 38.5t-39 48.5t-16 62.5q0 66 53 110.5t128 44.5q27 -1 34 -3z" />
    <glyph glyph-name="T" unicode="T" horiz-adv-x="260" 
d="M163 465v-465h-67v465h-71v62h210v-62h-72z" />
    <glyph glyph-name="U" unicode="U" horiz-adv-x="400" 
d="M200 57q42 0 75 34.5t33 80.5v355h67v-355q0 -72 -51 -125.5t-124 -53.5q-72 0 -123.5 53t-51.5 126v355h67v-355q0 -47 32 -81t76 -34z" />
    <glyph glyph-name="V" unicode="V" horiz-adv-x="360" 
d="M180 182l106 345h74l-180 -545l-180 545h74z" />
    <glyph glyph-name="W" unicode="W" horiz-adv-x="512" 
d="M512 527l-180 -544l-76 241l-76 -241l-180 544h74l106 -345l41 136l-69 209h74l30 -117l29 117h75l-70 -209l42 -136l106 345h74z" />
    <glyph glyph-name="X" unicode="X" horiz-adv-x="315" 
d="M287 0h-74l-55 148l-56 -148h-74l92 216l-120 311h74l84 -244l83 244h74l-120 -311z" />
    <glyph glyph-name="Y" unicode="Y" horiz-adv-x="315" 
d="M315 527l-125 -324v-203h-67v204l-123 323h74l83 -251l84 251h74z" />
    <glyph glyph-name="Z" unicode="Z" horiz-adv-x="251" 
d="M235 0h-235l161 465h-145v62h235l-161 -464h145v-63z" />
    <glyph glyph-name="bracketleft" unicode="[" horiz-adv-x="312" 
d="M40 244v283h76q77 0 131.5 -50.5t54.5 -121.5q0 -72 -54.5 -123t-131.5 -51h-9v-181h-67v182h-30v62h30zM116 465h-9v-221h13q46 0 78.5 32t32.5 78q0 47 -33.5 79t-81.5 32z" />
    <glyph glyph-name="backslash" unicode="\" horiz-adv-x="462" 
d="M92 527v-28q30 33 78 33q62 0 85 -47q27 47 88 47q94 0 94 -94v-438h-67v416q0 27 -14.5 40t-35.5 13q-22 0 -38.5 -13.5t-16.5 -34.5v-421h-67v416q0 26 -15 39.5t-36 13.5q-19 0 -35 -11.5t-20 -32.5v-425h-67v527h67z" />
    <glyph glyph-name="bracketright" unicode="]" horiz-adv-x="319" 
d="M40 180h-30v62h30v285h67v-285h120v285h67v-527h-67v180h-120v-180h-67v180z" />
    <glyph glyph-name="asciicircum" unicode="^" horiz-adv-x="310" 
d="M40 0v185h-30v62h30v280h101q62 0 108 -45.5t46 -115.5q0 -45 -17 -79.5t-33 -48t-32 -20.5q60 -34 60 -102q0 -48 -37 -82t-103 -34h-93zM127 463h-20v-215h25q4 0 10 1t22 8t28.5 18.5t22.5 35t10 54.5q0 43 -29 70.5t-69 27.5zM202 125q0 26 -18 43t-39 17h-38v-123
h40q2 0 6 0.5t13.5 4t16.5 9t13 18.5t6 31z" />
    <glyph glyph-name="underscore" unicode="_" horiz-adv-x="229" 
d="M229 -58h-229v58h229v-58z" />
    <glyph glyph-name="grave" unicode="`" horiz-adv-x="315" 
d="M290 403v-403h-67v263h-131v-263h-67v403q0 54 39 92t93 38q55 0 94 -38t39 -92zM92 405v-80h131v77q0 28 -19.5 47.5t-46.5 19.5q-26 0 -45.5 -19t-19.5 -45z" />
    <glyph glyph-name="a" unicode="a" horiz-adv-x="360" 
d="M75 0h-75l180 545l180 -545h-74l-33 108h-145zM235 167l-55 179l-54 -179h109z" />
    <glyph glyph-name="b" unicode="b" horiz-adv-x="299" 
d="M130 0h-105v527h92q64 0 102.5 -38t38.5 -90q0 -65 -60 -105q36 -13 61 -50t25 -85q0 -67 -43 -113t-111 -46zM116 253h-24v-188h29q40 0 65.5 25t25.5 67t-28 69t-68 27zM111 465h-19v-149h16q37 0 58 25t21 56q0 29 -19.5 48.5t-56.5 19.5z" />
    <glyph glyph-name="c" unicode="c" horiz-adv-x="328" 
d="M84 260q0 -83 58.5 -140.5t142.5 -57.5h18v-62h-18q-113 0 -193 77t-80 187q0 109 80 186t193 77h18v-62h-18q-83 0 -142 -60.5t-59 -144.5z" />
    <glyph glyph-name="d" unicode="d" horiz-adv-x="367" 
d="M91 0h-66v527h67q107 -1 183.5 -78t76.5 -186t-76.5 -186t-184.5 -77zM280 263q0 84 -54 142.5t-134 59.5v-404q80 0 134 58.5t54 143.5z" />
    <glyph glyph-name="e" unicode="e" horiz-adv-x="248" 
d="M223 0h-198v527h188v-62h-121v-130h114v-62h-114v-211h131v-62z" />
    <glyph glyph-name="f" unicode="f" horiz-adv-x="238" 
d="M92 261v-261h-67v527h188v-62h-121v-142h110v-62h-110z" />
    <glyph glyph-name="g" unicode="g" horiz-adv-x="325" 
d="M282 527h18v-64h-18q-83 0 -140.5 -57.5t-57.5 -142.5q0 -72 42 -127.5t107 -72.5v213h-56v62h123v-338h-19q-112 0 -190.5 76t-78.5 187t79 187.5t191 76.5z" />
    <glyph glyph-name="h" unicode="h" horiz-adv-x="304" 
d="M279 527v-527h-67v271h-120v-271h-67v527h67v-194h120v194h67z" />
    <glyph glyph-name="i" unicode="i" horiz-adv-x="117" 
d="M92 527v-527h-67v527h67z" />
    <glyph glyph-name="j" unicode="j" horiz-adv-x="242" 
d="M150 172v355h67v-354q0 -71 -51.5 -122t-123.5 -51h-27v63q17 -1 28 -1q45 0 76 33t31 77z" />
    <glyph glyph-name="k" unicode="k" horiz-adv-x="302" 
d="M292 0h-73l-127 271v-271h-67v527h67v-215l108 215h73l-120 -235z" />
    <glyph glyph-name="l" unicode="l" horiz-adv-x="248" 
d="M223 0h-198v527h67v-466h131v-61z" />
    <glyph glyph-name="m" unicode="m" horiz-adv-x="387" 
d="M194 148l-102 165v-313h-67v544l169 -275l168 275v-544h-67v313z" />
    <glyph glyph-name="n" unicode="n" horiz-adv-x="319" 
d="M227 527h67v-545l-202 331v-313h-67v544l202 -331v314z" />
    <glyph glyph-name="o" unicode="o" 
d="M553 263q0 -112 -79 -191t-191 -79t-191.5 79t-79.5 191t79.5 191t191.5 79t191 -79t79 -191zM283 469q-83 0 -141 -60t-58 -146t58 -146t141 -60q82 0 140 60t58 146t-58 146t-140 60z" />
    <glyph glyph-name="p" unicode="p" horiz-adv-x="297" 
d="M92 181v-181h-67v527h76q77 0 131.5 -51t54.5 -122q0 -72 -54.5 -122.5t-131.5 -50.5h-9zM92 243h9q48 0 81 31.5t33 79.5q0 47 -33.5 79.5t-80.5 32.5h-9v-223z" />
    <glyph glyph-name="q" unicode="q" 
d="M553 263q0 -65 -28.5 -121.5t-78.5 -94.5l58 -55l-46 -48l-73 69q-48 -20 -102 -20q-112 0 -191.5 79t-79.5 191t79.5 191t191.5 79t191 -79t79 -191zM283 469q-83 0 -141 -60t-58 -146t58 -146t141 -60q25 0 49 6l-59 57l46 49l78 -75q39 28 61.5 72.5t22.5 96.5
q0 86 -58 146t-140 60z" />
    <glyph glyph-name="r" unicode="r" horiz-adv-x="298" 
d="M92 197v-197h-67v527h76q77 0 132 -53t55 -129q0 -54 -30 -98t-79 -65l107 -182h-74zM92 224h9q47 0 81.5 35.5t34.5 85.5t-34 85t-82 35h-9v-241z" />
    <glyph glyph-name="s" unicode="s" horiz-adv-x="256" 
d="M23 0v64l34 -3q41 1 74.5 25t33.5 63q0 25 -16 47t-39 40.5t-45.5 38.5t-38.5 49t-16 64q0 58 48.5 100t116.5 42l41 -4v-62q-14 3 -29 3q-43 0 -74 -20.5t-31 -61.5q0 -24 16 -45.5t39 -40l46 -38t39 -48t16 -62.5q0 -65 -52.5 -109.5t-128.5 -44.5q-27 1 -34 3z" />
    <glyph glyph-name="t" unicode="t" horiz-adv-x="260" 
d="M163 465v-465h-67v465h-71v62h210v-62h-72z" />
    <glyph glyph-name="u" unicode="u" horiz-adv-x="400" 
d="M200 57q42 0 75 34.5t33 80.5v355h67v-355q0 -72 -51 -125.5t-124 -53.5q-72 0 -123.5 53t-51.5 126v355h67v-355q0 -47 32 -81t76 -34z" />
    <glyph glyph-name="v" unicode="v" horiz-adv-x="360" 
d="M180 182l106 345h74l-180 -545l-180 545h74z" />
    <glyph glyph-name="w" unicode="w" horiz-adv-x="571" 
d="M180 182l105 354l105 -354l106 345h75l-181 -545l-105 329l-105 -329l-180 545h74z" />
    <glyph glyph-name="x" unicode="x" horiz-adv-x="337" 
d="M337 0h-74l-94 208l-95 -208h-74l131 276l-120 251h74l84 -184l83 184h74l-120 -251z" />
    <glyph glyph-name="y" unicode="y" horiz-adv-x="315" 
d="M315 527l-125 -278v-249h-67v250l-123 277h74l83 -205l84 205h74z" />
    <glyph glyph-name="z" unicode="z" horiz-adv-x="251" 
d="M235 0h-235l161 465h-145v62h235l-161 -464h145v-63z" />
    <glyph glyph-name="braceleft" unicode="{" horiz-adv-x="311" 
d="M132 243q37 0 64.5 38.5t27.5 81.5q0 47 -28.5 73.5t-68.5 26.5h-20v-220h25zM107 180v-180h-67v180h-30v62h30v285h101q60 0 107.5 -44.5t47.5 -113.5q0 -65 -28 -104.5t-55 -51.5q7 -2 17 -6.5t26.5 -25.5t16.5 -50v-131h-71v131q0 22 -18 35.5t-39 13.5h-38z" />
    <glyph glyph-name="bar" unicode="|" horiz-adv-x="290" 
d="M92 527v-28q30 33 78 33q40 0 67.5 -23.5t27.5 -74.5v-434h-67v417q0 27 -15 40.5t-36 13.5t-38 -13.5t-17 -35.5v-422h-67v527h67z" />
    <glyph glyph-name="braceright" unicode="}" horiz-adv-x="855" 
d="M843 263q0 -112 -79 -191t-191 -79q-81 0 -146 42q-65 -42 -144 -42q-112 0 -191.5 79t-79.5 191t79.5 191t191.5 79q76 0 144 -42q68 42 146 42q112 0 191 -79t79 -191zM573 469q-46 0 -92 -23q72 -77 72 -183t-72 -183q43 -23 92 -23q82 0 140 60t58 146t-58 146
t-140 60zM283 469q-83 0 -141 -60t-58 -146t58 -146t141 -60q49 0 91 22q-72 77 -72 184q0 106 72 183q-41 23 -91 23zM481 263q0 80 -54 141q-53 -59 -53 -141t53 -141q54 61 54 141z" />
    <glyph glyph-name="asciitilde" unicode="~" horiz-adv-x="330" 
d="M40 403q0 54 39 92t93 38q55 0 94 -38t39 -92v-403h-67v263h-131v-263h-67v263h-30v62h30v78zM107 405v-80h131v77q0 28 -19.5 47.5t-46.5 19.5q-26 0 -45.5 -19t-19.5 -45z" />
    <glyph glyph-name="exclamdown" unicode="&#xa1;" horiz-adv-x="135" 
d="M33 -6l5 418h58l5 -418h-68zM30 490q0 15 11.5 26t26.5 11t26 -10.5t11 -26.5t-11 -27t-26 -11t-26.5 11t-11.5 27z" />
    <glyph glyph-name="cent" unicode="&#xa2;" horiz-adv-x="177" 
d="M105 231v55q-38 13 -61.5 44.5t-23.5 71.5t23.5 72.5t61.5 45.5v43h23v-38q12 2 20 2h9v-49h-9q-38 0 -58.5 -23.5t-20.5 -54.5q0 -30 20 -51t59 -21h9v-49h-9q-14 0 -20 1v-49h-23z" />
    <glyph glyph-name="sterling" unicode="&#xa3;" horiz-adv-x="351" 
d="M194 263v-65q0 -45 -32 -84q24 -3 77 -28.5t83 -25.5q26 0 35 4v-63q-14 -7 -47 -7q-36 0 -71 16q-48 26 -73.5 34.5t-57.5 8.5q-38 0 -58 -8v70q72 22 72 90v58h-55v62h54v54q0 67 52.5 110.5t128.5 43.5q27 -1 34 -3v-62l-34 4q-47 0 -77.5 -27t-31.5 -72q0 -23 1 -48
h70v-62h-70z" />
    <glyph glyph-name="yen" unicode="&#xa5;" horiz-adv-x="325" 
d="M252 93h-56v-93h-68v93h-57v52h57v29h-57v52h57v24l-123 277h74l83 -205l84 205h74l-124 -278v-23h56v-52h-56v-29h56v-52z" />
    <glyph glyph-name="dieresis" unicode="&#xa8;" horiz-adv-x="236" 
d="M30 611q0 16 11.5 27t26.5 11t26 -11t11 -27t-11 -26.5t-26 -10.5t-26.5 11t-11.5 26zM131 611q0 16 11.5 27t26.5 11t26 -11t11 -27t-11 -26.5t-26 -10.5t-26.5 11t-11.5 26z" />
    <glyph glyph-name="copyright" unicode="&#xa9;" horiz-adv-x="314" 
d="M145 0h-105v254h-30v62h30v211h92q64 0 102.5 -38t38.5 -90q0 -65 -60 -105q36 -13 61 -50t25 -85q0 -67 -43 -113t-111 -46zM131 254h-24v-189h29q40 0 65.5 25t25.5 67q0 43 -28 70t-68 27zM123 316q37 0 58 25t21 56q0 29 -19.5 48.5t-56.5 19.5h-19v-149h16z" />
    <glyph glyph-name="registered" unicode="&#xae;" horiz-adv-x="307" 
d="M296 369q0 -59 -27 -103.5t-76 -68.5q16 -16 30 -40l94 -157h-75l-80 134q-27 46 -55 46v-180h-67v180h-30v62h30v285h101q60 0 107.5 -44.5t47.5 -113.5zM132 243q41 1 65.5 36t24.5 80q0 43 -24 73.5t-71 30.5h-20v-220h25z" />
    <glyph glyph-name="degree" unicode="&#xb0;" horiz-adv-x="244" 
d="M224 436q0 -42 -30 -72t-72 -30t-72 30t-30 72t30 72t72 30t72 -30t30 -72zM122 514q-31 0 -53 -23t-22 -55t22 -54.5t53 -22.5t52.5 22.5t21.5 54.5t-21.5 55t-52.5 23z" />
    <glyph glyph-name="mu" unicode="&#xb5;" horiz-adv-x="396" 
d="M198 94l-106 240v-334h-67v526h53l120 -280l120 280h53v-526h-67v334z" />
    <glyph glyph-name="mu" unicode="&#x3bc;" horiz-adv-x="396" 
d="M198 94l-106 240v-334h-67v526h53l120 -280l120 280h53v-526h-67v334z" />
    <glyph glyph-name="cedilla" unicode="&#xb8;" horiz-adv-x="174" 
d="M45 28h33l-5 -38q31 0 51 -21t20 -53q0 -34 -26 -58.5t-63 -24.5l-25 3v32q10 -3 23 -3q21 0 37 14.5t16 36.5q0 21 -14 34.5t-33 13.5q-16 0 -26 -9z" />
    <glyph glyph-name="onequarter" unicode="&#xbc;" horiz-adv-x="569" 
d="M83 446l-53 -47v60l103 91v-399h-50v295zM442 94h-197l246 306v-260h48v-46h-48v-94h-49v94zM341 140h101v131zM522 527l-420 -527h-52l420 527h52z" />
    <glyph glyph-name="onehalf" unicode="&#xbd;" horiz-adv-x="656" 
d="M84 446l-53 -47v60l103 91v-399h-50v295zM393 0q145 182 161 207q20 30 20 58q0 33 -23.5 57.5t-57.5 24.5t-58 -24.5t-24 -57.5q0 -63 60 -77l-32 -39q-80 33 -80 116q0 60 39.5 94.5t94.5 34.5q53 0 93 -34.5t40 -94.5q0 -38 -25.5 -78.5t-110.5 -139.5h110v-47h-207z
M502 527l-420 -527h-52l420 527h52z" />
    <glyph glyph-name="threequarters" unicode="&#xbe;" horiz-adv-x="575" 
d="M30 151v47q8 -5 41 -5q29 0 49.5 15.5t20.5 44.5q0 23 -18.5 40.5t-43.5 17.5h-11v43h11q28 0 50.5 21t22.5 51q0 35 -24.5 53.5t-60.5 18.5l-34 -4v47q19 5 46 5q54 0 90 -33t36 -87q0 -28 -16 -54.5t-38 -37.5q18 -10 30.5 -32t12.5 -49q0 -48 -33 -77.5t-82 -29.5
q-36 0 -49 5zM448 94h-197l246 306v-260h48v-46h-48v-94h-49v94zM347 140h101v131zM528 527l-420 -527h-52l420 527h52z" />
    <glyph glyph-name="questiondown" unicode="&#xbf;" horiz-adv-x="312" 
d="M281 65l1 -62q-30 -10 -65 -10q-75 0 -131 45.5t-56 128.5q0 64 38.5 111t109.5 65v72h68v-109q-24 -3 -47.5 -11.5t-46.5 -23.5t-37.5 -42t-14.5 -62q0 -53 37 -81.5t90 -28.5q31 0 54 8zM253 492q0 -16 -12.5 -29t-28.5 -13t-29 13t-13 29t13 28.5t29 12.5t28.5 -12.5
t12.5 -28.5z" />
    <glyph glyph-name="Agrave" unicode="&#xc0;" horiz-adv-x="360" 
d="M75 0h-75l180 545l180 -545h-74l-33 108h-145zM235 167l-55 179l-54 -179h109zM151 717l74 -122h-55l-92 122h73z" />
    <glyph glyph-name="Aacute" unicode="&#xc1;" horiz-adv-x="360" 
d="M75 0h-75l180 545l180 -545h-74l-33 108h-145zM235 167l-55 179l-54 -179h109zM139 595l74 122h73l-92 -122h-55z" />
    <glyph glyph-name="Acircumflex" unicode="&#xc2;" horiz-adv-x="360" 
d="M75 0h-75l180 545l180 -545h-74l-33 108h-145zM60 585l92 122h56l92 -122h-73l-47 77l-47 -77h-73zM235 167l-55 179l-54 -179h109z" />
    <glyph glyph-name="Atilde" unicode="&#xc3;" horiz-adv-x="360" 
d="M64 584v46q21 12 49 12q22 0 68 -12.5t69 -12.5q25 0 50 13v-46q-23 -11 -50 -11q-23 0 -68.5 11t-67.5 11q-28 0 -50 -11zM75 0h-75l180 545l180 -545h-74l-33 108h-145zM235 167l-55 179l-54 -179h109z" />
    <glyph glyph-name="Adieresis" unicode="&#xc4;" horiz-adv-x="360" 
d="M75 0h-75l180 545l180 -545h-74l-33 108h-145zM235 167l-55 179l-54 -179h109zM93 630q0 16 11.5 27t26.5 11t26 -11t11 -27t-11 -26.5t-26 -10.5t-26.5 11t-11.5 26zM194 630q0 16 11.5 27t26.5 11t26 -11t11 -27t-11 -26.5t-26 -10.5t-26.5 11t-11.5 26z" />
    <glyph glyph-name="Aring" unicode="&#xc5;" horiz-adv-x="360" 
d="M232 651q0 -22 -15 -37t-37 -15t-37 15t-15 37t15 37t37 15t37 -15t15 -37zM180 691q-16 0 -27 -11.5t-11 -28.5q0 -16 11 -27.5t27 -11.5t27 11.5t11 27.5q0 17 -11 28.5t-27 11.5zM75 0h-75l180 545l180 -545h-74l-33 108h-145zM235 167l-55 179l-54 -179h109z" />
    <glyph glyph-name="AE" unicode="&#xc6;" horiz-adv-x="451" 
d="M426 0h-206v108h-102l-43 -108h-75l220 527h196v-62h-129v-293h122v-62h-122v-48h139v-62zM220 167v199l-84 -199h84z" />
    <glyph glyph-name="Ccedilla" unicode="&#xc7;" horiz-adv-x="328" 
d="M84 260q0 -83 58.5 -140.5t142.5 -57.5h18v-62h-18q-47 0 -85 13l-3 -23q31 0 51 -21t20 -53q0 -34 -26 -58.5t-63 -24.5l-25 3v32q10 -3 23 -3q21 0 37 14.5t16 36.5q0 21 -14 34.5t-33 13.5q-16 0 -26 -9l11 70q-70 32 -113 96.5t-43 142.5q0 109 80 186t193 77h18v-62
h-18q-83 0 -142 -60.5t-59 -144.5z" />
    <glyph glyph-name="Egrave" unicode="&#xc8;" horiz-adv-x="248" 
d="M92 717l74 -122h-55l-92 122h73zM223 0h-198v527h188v-62h-121v-223h114v-62h-114v-118h131v-62z" />
    <glyph glyph-name="Eacute" unicode="&#xc9;" horiz-adv-x="248" 
d="M79 595l74 122h73l-92 -122h-55zM223 0h-198v527h188v-62h-121v-223h114v-62h-114v-118h131v-62z" />
    <glyph glyph-name="Ecircumflex" unicode="&#xca;" horiz-adv-x="248" 
d="M-2 585l92 122h56l92 -122h-73l-47 77l-47 -77h-73zM223 0h-198v527h188v-62h-121v-223h114v-62h-114v-118h131v-62z" />
    <glyph glyph-name="Edieresis" unicode="&#xcb;" horiz-adv-x="248" 
d="M223 0h-198v527h188v-62h-121v-223h114v-62h-114v-118h131v-62zM33 630q0 16 11.5 27t26.5 11t26 -11t11 -27t-11 -26.5t-26 -10.5t-26.5 11t-11.5 26zM134 630q0 16 11.5 27t26.5 11t26 -11t11 -27t-11 -26.5t-26 -10.5t-26.5 11t-11.5 26z" />
    <glyph glyph-name="Igrave" unicode="&#xcc;" horiz-adv-x="118" 
d="M93 527v-527h-68v527h68zM38 717l74 -122h-55l-92 122h73z" />
    <glyph glyph-name="Iacute" unicode="&#xcd;" horiz-adv-x="118" 
d="M93 527v-527h-68v527h68zM7 595l74 122h73l-92 -122h-55z" />
    <glyph glyph-name="Icircumflex" unicode="&#xce;" horiz-adv-x="118" 
d="M93 527v-527h-68v527h68zM-61 585l92 122h56l92 -122h-73l-47 77l-47 -77h-73z" />
    <glyph glyph-name="Idieresis" unicode="&#xcf;" horiz-adv-x="118" 
d="M93 527v-527h-68v527h68zM-30 630q0 16 11.5 27t26.5 11t26 -11t11 -27t-11 -26.5t-26 -10.5t-26.5 11t-11.5 26zM71 630q0 16 11.5 27t26.5 11t26 -11t11 -27t-11 -26.5t-26 -10.5t-26.5 11t-11.5 26z" />
    <glyph glyph-name="Eth" unicode="&#xd0;" horiz-adv-x="421" 
d="M145 0h-66v232h-59v62h59v233h67q107 -1 183.5 -78t76.5 -186t-76.5 -186t-184.5 -77zM210 232h-64v-171q80 0 134 58.5t54 143.5q0 84 -54 142.5t-134 59.5v-171h64v-62z" />
    <glyph glyph-name="Ntilde" unicode="&#xd1;" horiz-adv-x="319" 
d="M227 527h67v-545l-202 331v-313h-67v544l202 -331v314zM35 584v46q21 12 49 12q22 0 68 -12.5t69 -12.5q25 0 50 13v-46q-23 -11 -50 -11q-23 0 -68.5 11t-67.5 11q-28 0 -50 -11z" />
    <glyph glyph-name="Ograve" unicode="&#xd2;" 
d="M553 263q0 -112 -79 -191t-191 -79t-191.5 79t-79.5 191t79.5 191t191.5 79t191 -79t79 -191zM283 469q-83 0 -141 -60t-58 -146t58 -146t141 -60q82 0 140 60t58 146t-58 146t-140 60zM268 717l74 -122h-55l-92 122h73z" />
    <glyph glyph-name="Oacute" unicode="&#xd3;" 
d="M553 263q0 -112 -79 -191t-191 -79t-191.5 79t-79.5 191t79.5 191t191.5 79t191 -79t79 -191zM283 469q-83 0 -141 -60t-58 -146t58 -146t141 -60q82 0 140 60t58 146t-58 146t-140 60zM238 595l74 122h73l-92 -122h-55z" />
    <glyph glyph-name="Ocircumflex" unicode="&#xd4;" 
d="M553 263q0 -112 -79 -191t-191 -79t-191.5 79t-79.5 191t79.5 191t191.5 79t191 -79t79 -191zM283 469q-83 0 -141 -60t-58 -146t58 -146t141 -60q82 0 140 60t58 146t-58 146t-140 60zM163 585l92 122h56l92 -122h-73l-47 77l-47 -77h-73z" />
    <glyph glyph-name="Otilde" unicode="&#xd5;" 
d="M553 263q0 -112 -79 -191t-191 -79t-191.5 79t-79.5 191t79.5 191t191.5 79t191 -79t79 -191zM283 469q-83 0 -141 -60t-58 -146t58 -146t141 -60q82 0 140 60t58 146t-58 146t-140 60zM171 584v46q21 12 49 12q22 0 68 -12.5t69 -12.5q25 0 50 13v-46q-23 -11 -50 -11
q-23 0 -68.5 11t-67.5 11q-28 0 -50 -11z" />
    <glyph glyph-name="Odieresis" unicode="&#xd6;" 
d="M553 263q0 -112 -79 -191t-191 -79t-191.5 79t-79.5 191t79.5 191t191.5 79t191 -79t79 -191zM283 469q-83 0 -141 -60t-58 -146t58 -146t141 -60q82 0 140 60t58 146t-58 146t-140 60zM192 630q0 16 11.5 27t26.5 11t26 -11t11 -27t-11 -26.5t-26 -10.5t-26.5 11
t-11.5 26zM293 630q0 16 11.5 27t26.5 11t26 -11t11 -27t-11 -26.5t-26 -10.5t-26.5 11t-11.5 26z" />
    <glyph glyph-name="Oslash" unicode="&#xd8;" 
d="M134 37l-29 -37h-52l49 62q-90 79 -90 201q0 112 79.5 191t191.5 79q85 0 155 -49l35 43h52l-55 -69q83 -80 83 -195q0 -112 -79 -191t-191 -79q-81 0 -149 44zM283 469q-83 0 -141 -60t-58 -146q0 -88 60 -148l253 316q-51 38 -114 38zM283 57q82 0 140 60t58 146
q0 82 -54 141l-251 -315q50 -32 107 -32z" />
    <glyph glyph-name="Ugrave" unicode="&#xd9;" horiz-adv-x="400" 
d="M200 57q42 0 75 34.5t33 80.5v355h67v-355q0 -72 -51 -125.5t-124 -53.5q-72 0 -123.5 53t-51.5 126v355h67v-355q0 -47 32 -81t76 -34zM180 717l74 -122h-55l-92 122h73z" />
    <glyph glyph-name="Uacute" unicode="&#xda;" horiz-adv-x="400" 
d="M200 57q42 0 75 34.5t33 80.5v355h67v-355q0 -72 -51 -125.5t-124 -53.5q-72 0 -123.5 53t-51.5 126v355h67v-355q0 -47 32 -81t76 -34zM157 595l74 122h73l-92 -122h-55z" />
    <glyph glyph-name="Ucircumflex" unicode="&#xdb;" horiz-adv-x="400" 
d="M200 57q42 0 75 34.5t33 80.5v355h67v-355q0 -72 -51 -125.5t-124 -53.5q-72 0 -123.5 53t-51.5 126v355h67v-355q0 -47 32 -81t76 -34zM80 585l92 122h56l92 -122h-73l-47 77l-47 -77h-73z" />
    <glyph glyph-name="Udieresis" unicode="&#xdc;" horiz-adv-x="400" 
d="M200 57q42 0 75 34.5t33 80.5v355h67v-355q0 -72 -51 -125.5t-124 -53.5q-72 0 -123.5 53t-51.5 126v355h67v-355q0 -47 32 -81t76 -34zM107 630q0 16 11.5 27t26.5 11t26 -11t11 -27t-11 -26.5t-26 -10.5t-26.5 11t-11.5 26zM208 630q0 16 11.5 27t26.5 11t26 -11
t11 -27t-11 -26.5t-26 -10.5t-26.5 11t-11.5 26z" />
    <glyph glyph-name="Yacute" unicode="&#xdd;" horiz-adv-x="325" 
d="M122 595l74 122h73l-92 -122h-55zM320 527l-124 -278v-249h-68v250l-123 277h74l83 -205l84 205h74z" />
    <glyph glyph-name="Thorn" unicode="&#xde;" horiz-adv-x="297" 
d="M92 181v-181h-67v587h67v-60h9q77 0 131.5 -51t54.5 -122q0 -72 -54.5 -122.5t-131.5 -50.5h-9zM92 243h9q48 0 81 31.5t33 79.5q0 47 -33.5 79.5t-80.5 32.5h-9v-223z" />
    <glyph glyph-name="germandbls" unicode="&#xdf;" horiz-adv-x="340" 
d="M167 0h-28l2 62h40q2 0 6 1t13.5 5t16.5 10.5t13 20t6 31.5q0 27 -18 46t-39 19h-38v63h25q43 0 67.5 30.5t24.5 75.5q0 42 -21.5 73t-60.5 32q-75 0 -82 -75l-5 -394h-64v394q0 59 40 99t108 40q64 0 110.5 -45t46.5 -122q0 -102 -83 -138q61 -35 61 -107
q0 -48 -37.5 -84.5t-103.5 -36.5z" />
    <glyph glyph-name="agrave" unicode="&#xe0;" horiz-adv-x="360" 
d="M75 0h-75l180 545l180 -545h-74l-33 108h-145zM235 167l-55 179l-54 -179h109zM151 717l74 -122h-55l-92 122h73z" />
    <glyph glyph-name="aacute" unicode="&#xe1;" horiz-adv-x="360" 
d="M75 0h-75l180 545l180 -545h-74l-33 108h-145zM235 167l-55 179l-54 -179h109zM139 595l74 122h73l-92 -122h-55z" />
    <glyph glyph-name="acircumflex" unicode="&#xe2;" horiz-adv-x="360" 
d="M75 0h-75l180 545l180 -545h-74l-33 108h-145zM60 585l92 122h56l92 -122h-73l-47 77l-47 -77h-73zM235 167l-55 179l-54 -179h109z" />
    <glyph glyph-name="atilde" unicode="&#xe3;" horiz-adv-x="360" 
d="M64 584v46q21 12 49 12q22 0 68 -12.5t69 -12.5q25 0 50 13v-46q-23 -11 -50 -11q-23 0 -68.5 11t-67.5 11q-28 0 -50 -11zM75 0h-75l180 545l180 -545h-74l-33 108h-145zM235 167l-55 179l-54 -179h109z" />
    <glyph glyph-name="adieresis" unicode="&#xe4;" horiz-adv-x="360" 
d="M75 0h-75l180 545l180 -545h-74l-33 108h-145zM235 167l-55 179l-54 -179h109zM93 630q0 16 11.5 27t26.5 11t26 -11t11 -27t-11 -26.5t-26 -10.5t-26.5 11t-11.5 26zM194 630q0 16 11.5 27t26.5 11t26 -11t11 -27t-11 -26.5t-26 -10.5t-26.5 11t-11.5 26z" />
    <glyph glyph-name="aring" unicode="&#xe5;" horiz-adv-x="360" 
d="M232 651q0 -22 -15 -37t-37 -15t-37 15t-15 37t15 37t37 15t37 -15t15 -37zM180 691q-16 0 -27 -11.5t-11 -28.5q0 -16 11 -27.5t27 -11.5t27 11.5t11 27.5q0 17 -11 28.5t-27 11.5zM75 0h-75l180 545l180 -545h-74l-33 108h-145zM235 167l-55 179l-54 -179h109z" />
    <glyph glyph-name="ae" unicode="&#xe6;" horiz-adv-x="451" 
d="M426 0h-206v108h-102l-43 -108h-75l220 527h196v-62h-129v-293h122v-62h-122v-48h139v-62zM220 167v199l-84 -199h84z" />
    <glyph glyph-name="ccedilla" unicode="&#xe7;" horiz-adv-x="328" 
d="M84 260q0 -83 58.5 -140.5t142.5 -57.5h18v-62h-18q-47 0 -85 13l-3 -23q31 0 51 -21t20 -53q0 -34 -26 -58.5t-63 -24.5l-25 3v32q10 -3 23 -3q21 0 37 14.5t16 36.5q0 21 -14 34.5t-33 13.5q-16 0 -26 -9l11 70q-70 32 -113 96.5t-43 142.5q0 109 80 186t193 77h18v-62
h-18q-83 0 -142 -60.5t-59 -144.5z" />
    <glyph glyph-name="egrave" unicode="&#xe8;" horiz-adv-x="248" 
d="M92 717l74 -122h-55l-92 122h73zM223 0h-198v527h188v-62h-121v-130h114v-62h-114v-211h131v-62z" />
    <glyph glyph-name="eacute" unicode="&#xe9;" horiz-adv-x="248" 
d="M79 595l74 122h73l-92 -122h-55zM223 0h-198v527h188v-62h-121v-130h114v-62h-114v-211h131v-62z" />
    <glyph glyph-name="ecircumflex" unicode="&#xea;" horiz-adv-x="248" 
d="M-2 585l92 122h56l92 -122h-73l-47 77l-47 -77h-73zM223 0h-198v527h188v-62h-121v-130h114v-62h-114v-211h131v-62z" />
    <glyph glyph-name="edieresis" unicode="&#xeb;" horiz-adv-x="248" 
d="M33 630q0 16 11.5 27t26.5 11t26 -11t11 -27t-11 -26.5t-26 -10.5t-26.5 11t-11.5 26zM134 630q0 16 11.5 27t26.5 11t26 -11t11 -27t-11 -26.5t-26 -10.5t-26.5 11t-11.5 26zM223 0h-198v527h188v-62h-121v-130h114v-62h-114v-211h131v-62z" />
    <glyph glyph-name="igrave" unicode="&#xec;" horiz-adv-x="118" 
d="M93 527v-527h-68v527h68zM38 717l74 -122h-55l-92 122h73z" />
    <glyph glyph-name="iacute" unicode="&#xed;" horiz-adv-x="118" 
d="M93 527v-527h-68v527h68zM7 595l74 122h73l-92 -122h-55z" />
    <glyph glyph-name="icircumflex" unicode="&#xee;" horiz-adv-x="118" 
d="M93 527v-527h-68v527h68zM-61 585l92 122h56l92 -122h-73l-47 77l-47 -77h-73z" />
    <glyph glyph-name="idieresis" unicode="&#xef;" horiz-adv-x="118" 
d="M93 527v-527h-68v527h68zM-30 630q0 16 11.5 27t26.5 11t26 -11t11 -27t-11 -26.5t-26 -10.5t-26.5 11t-11.5 26zM71 630q0 16 11.5 27t26.5 11t26 -11t11 -27t-11 -26.5t-26 -10.5t-26.5 11t-11.5 26z" />
    <glyph glyph-name="eth" unicode="&#xf0;" horiz-adv-x="403" 
d="M229 415l-54 -39l-33 47l38 27q-31 16 -62 19v58q63 -7 115 -40l45 32l33 -46l-32 -23q50 -49 77 -119t27 -142q0 -81 -51 -138.5t-128 -57.5q-76 0 -130 54t-54 128q0 75 52.5 129.5t122.5 54.5q64 0 91 -31q-12 43 -57 87zM314 175q0 50 -31 84.5t-79 34.5
q-49 0 -81 -34.5t-32 -84.5q0 -49 32 -83.5t81 -34.5q48 0 79 34t31 84z" />
    <glyph glyph-name="ntilde" unicode="&#xf1;" horiz-adv-x="319" 
d="M227 527h67v-545l-202 331v-313h-67v544l202 -331v314zM35 584v46q21 12 49 12q22 0 68 -12.5t69 -12.5q25 0 50 13v-46q-23 -11 -50 -11q-23 0 -68.5 11t-67.5 11q-28 0 -50 -11z" />
    <glyph glyph-name="ograve" unicode="&#xf2;" 
d="M553 263q0 -112 -79 -191t-191 -79t-191.5 79t-79.5 191t79.5 191t191.5 79t191 -79t79 -191zM283 469q-83 0 -141 -60t-58 -146t58 -146t141 -60q82 0 140 60t58 146t-58 146t-140 60zM268 717l74 -122h-55l-92 122h73z" />
    <glyph glyph-name="oacute" unicode="&#xf3;" 
d="M553 263q0 -112 -79 -191t-191 -79t-191.5 79t-79.5 191t79.5 191t191.5 79t191 -79t79 -191zM283 469q-83 0 -141 -60t-58 -146t58 -146t141 -60q82 0 140 60t58 146t-58 146t-140 60zM238 595l74 122h73l-92 -122h-55z" />
    <glyph glyph-name="ocircumflex" unicode="&#xf4;" 
d="M553 263q0 -112 -79 -191t-191 -79t-191.5 79t-79.5 191t79.5 191t191.5 79t191 -79t79 -191zM283 469q-83 0 -141 -60t-58 -146t58 -146t141 -60q82 0 140 60t58 146t-58 146t-140 60zM163 585l92 122h56l92 -122h-73l-47 77l-47 -77h-73z" />
    <glyph glyph-name="otilde" unicode="&#xf5;" 
d="M553 263q0 -112 -79 -191t-191 -79t-191.5 79t-79.5 191t79.5 191t191.5 79t191 -79t79 -191zM283 469q-83 0 -141 -60t-58 -146t58 -146t141 -60q82 0 140 60t58 146t-58 146t-140 60zM171 584v46q21 12 49 12q22 0 68 -12.5t69 -12.5q25 0 50 13v-46q-23 -11 -50 -11
q-23 0 -68.5 11t-67.5 11q-28 0 -50 -11z" />
    <glyph glyph-name="odieresis" unicode="&#xf6;" 
d="M553 263q0 -112 -79 -191t-191 -79t-191.5 79t-79.5 191t79.5 191t191.5 79t191 -79t79 -191zM283 469q-83 0 -141 -60t-58 -146t58 -146t141 -60q82 0 140 60t58 146t-58 146t-140 60zM192 630q0 16 11.5 27t26.5 11t26 -11t11 -27t-11 -26.5t-26 -10.5t-26.5 11
t-11.5 26zM293 630q0 16 11.5 27t26.5 11t26 -11t11 -27t-11 -26.5t-26 -10.5t-26.5 11t-11.5 26z" />
    <glyph glyph-name="oslash" unicode="&#xf8;" 
d="M134 37l-29 -37h-52l49 62q-90 79 -90 201q0 112 79.5 191t191.5 79q85 0 155 -49l35 43h52l-55 -69q83 -80 83 -195q0 -112 -79 -191t-191 -79q-81 0 -149 44zM283 469q-83 0 -141 -60t-58 -146q0 -88 60 -148l253 316q-51 38 -114 38zM283 57q82 0 140 60t58 146
q0 82 -54 141l-251 -315q50 -32 107 -32z" />
    <glyph glyph-name="ugrave" unicode="&#xf9;" horiz-adv-x="400" 
d="M200 57q42 0 75 34.5t33 80.5v355h67v-355q0 -72 -51 -125.5t-124 -53.5q-72 0 -123.5 53t-51.5 126v355h67v-355q0 -47 32 -81t76 -34zM180 717l74 -122h-55l-92 122h73z" />
    <glyph glyph-name="uacute" unicode="&#xfa;" horiz-adv-x="400" 
d="M200 57q42 0 75 34.5t33 80.5v355h67v-355q0 -72 -51 -125.5t-124 -53.5q-72 0 -123.5 53t-51.5 126v355h67v-355q0 -47 32 -81t76 -34zM157 595l74 122h73l-92 -122h-55z" />
    <glyph glyph-name="ucircumflex" unicode="&#xfb;" horiz-adv-x="400" 
d="M200 57q42 0 75 34.5t33 80.5v355h67v-355q0 -72 -51 -125.5t-124 -53.5q-72 0 -123.5 53t-51.5 126v355h67v-355q0 -47 32 -81t76 -34zM80 585l92 122h56l92 -122h-73l-47 77l-47 -77h-73z" />
    <glyph glyph-name="udieresis" unicode="&#xfc;" horiz-adv-x="400" 
d="M200 57q42 0 75 34.5t33 80.5v355h67v-355q0 -72 -51 -125.5t-124 -53.5q-72 0 -123.5 53t-51.5 126v355h67v-355q0 -47 32 -81t76 -34zM107 630q0 16 11.5 27t26.5 11t26 -11t11 -27t-11 -26.5t-26 -10.5t-26.5 11t-11.5 26zM208 630q0 16 11.5 27t26.5 11t26 -11
t11 -27t-11 -26.5t-26 -10.5t-26.5 11t-11.5 26z" />
    <glyph glyph-name="yacute" unicode="&#xfd;" horiz-adv-x="325" 
d="M122 595l74 122h73l-92 -122h-55zM320 527l-124 -278v-249h-68v250l-123 277h74l83 -205l84 205h74z" />
    <glyph glyph-name="thorn" unicode="&#xfe;" horiz-adv-x="297" 
d="M92 181v-181h-67v587h67v-60h9q77 0 131.5 -51t54.5 -122q0 -72 -54.5 -122.5t-131.5 -50.5h-9zM92 243h9q48 0 81 31.5t33 79.5q0 47 -33.5 79.5t-80.5 32.5h-9v-223z" />
    <glyph glyph-name="ydieresis" unicode="&#xff;" horiz-adv-x="325" 
d="M320 527l-124 -278v-249h-68v250l-123 277h74l83 -205l84 205h74zM72 630q0 16 11.5 27t26.5 11t26 -11t11 -27t-11 -26.5t-26 -10.5t-26.5 11t-11.5 26zM173 630q0 16 11.5 27t26.5 11t26 -11t11 -27t-11 -26.5t-26 -10.5t-26.5 11t-11.5 26z" />
    <glyph glyph-name="OE" unicode="&#x152;" horiz-adv-x="709" 
d="M684 -1h-198v86q-81 -92 -203 -92q-112 0 -191.5 79t-79.5 191t79.5 191t191.5 79q121 0 203 -92v86h188v-62h-121v-223h114v-62h-114v-119h131v-62zM283 469q-83 0 -141 -60t-58 -146t58 -146t141 -60q82 0 140 60t58 146t-58 146t-140 60z" />
    <glyph glyph-name="oe" unicode="&#x153;" horiz-adv-x="710" 
d="M685 -1h-198v87q-82 -93 -204 -93q-112 0 -191.5 79t-79.5 191t79.5 191t191.5 79q122 0 204 -94v88h188v-62h-121v-130h114v-62h-114v-212h131v-62zM283 469q-83 0 -141 -60t-58 -146t58 -146t141 -60q82 0 140 60t58 146t-58 146t-140 60z" />
    <glyph glyph-name="Scaron" unicode="&#x160;" horiz-adv-x="261" 
d="M260 677l-92 -122h-56l-92 122h73l47 -77l47 77h73zM225 527v-64q-13 3 -28 3q-44 0 -79 -24t-35 -65q0 -25 16 -47.5t38.5 -41l45.5 -39t39 -49.5t16 -64q0 -58 -48.5 -97t-116.5 -39q-30 1 -41 4v62l41 -3q39 0 66 21t27 55q0 24 -16 46t-39 40.5l-46 38.5t-39 48.5
t-16 62.5q0 66 53 110.5t128 44.5q27 -1 34 -3z" />
    <glyph glyph-name="scaron" unicode="&#x161;" horiz-adv-x="256" 
d="M249 687l-92 -122h-56l-92 122h73l47 -77l47 77h73zM23 3v64l34 -3q42 1 75 23.5t33 61.5q0 25 -16 47t-39 40.5t-45.5 38.5t-38.5 49t-16 64q0 58 48.5 100t116.5 42q30 -1 41 -4v-62l-41 3q-38 0 -65.5 -24t-27.5 -58q0 -24 16 -45.5t39 -40l46 -38t39 -48t16 -62.5
q0 -65 -52.5 -108t-128.5 -43q-27 1 -34 3z" />
    <glyph glyph-name="Ydieresis" unicode="&#x178;" horiz-adv-x="325" 
d="M320 528l-124 -279v-249h-68v250l-123 278h74l83 -206l84 206h74zM72 630q0 16 11.5 27t26.5 11t26 -11t11 -27t-11 -26.5t-26 -10.5t-26.5 11t-11.5 26zM173 630q0 16 11.5 27t26.5 11t26 -11t11 -27t-11 -26.5t-26 -10.5t-26.5 11t-11.5 26z" />
    <glyph glyph-name="Zcaron" unicode="&#x17d;" horiz-adv-x="330" 
d="M300 707l-92 -122h-56l-92 122h73l47 -77l47 77h73zM295 0h-285l219 465h-185v62h286l-219 -464h184v-63z" />
    <glyph glyph-name="zcaron" unicode="&#x17e;" horiz-adv-x="330" 
d="M300 707l-92 -122h-56l-92 122h73l47 -77l47 77h73zM295 0h-285l219 465h-185v62h286l-219 -464h184v-63z" />
    <glyph glyph-name="florin" unicode="&#x192;" horiz-adv-x="351" 
d="M30 0v61q39 0 66 23t27 58q0 27 -0.5 65.5t-0.5 54.5h-55v57h54v54q0 67 52.5 110.5t128.5 43.5q27 -1 34 -3v-62l-34 4q-47 0 -77.5 -27t-31.5 -72q0 -23 1 -48h70v-57h-70q1 -55 1 -120q0 -60 -48.5 -101t-116.5 -41z" />
    <glyph glyph-name="ring" unicode="&#x2da;" horiz-adv-x="244" 
d="M224 436q0 -42 -30 -72t-72 -30t-72 30t-30 72t30 72t72 30t72 -30t30 -72zM122 514q-31 0 -53 -23t-22 -55t22 -54.5t53 -22.5t52.5 22.5t21.5 54.5t-21.5 55t-52.5 23z" />
    <glyph glyph-name="tilde" unicode="&#x2dc;" horiz-adv-x="296" 
d="M30 584v46q21 12 49 12q22 0 68 -12.5t69 -12.5q25 0 50 13v-46q-23 -11 -50 -11q-23 0 -68.5 11t-67.5 11q-28 0 -50 -11z" />
    <glyph glyph-name="endash" unicode="&#x2013;" horiz-adv-x="261" 
 />
    <glyph glyph-name="quoteleft" unicode="&#x2018;" horiz-adv-x="193" 
d="M98 527l65 -178h-58l-75 178h68z" />
    <glyph glyph-name="quoteright" unicode="&#x2019;" horiz-adv-x="193" 
d="M30 349l65 178h68l-75 -178h-58z" />
    <glyph glyph-name="quotesinglbase" unicode="&#x201a;" horiz-adv-x="135" 
d="M54 -3q-24 9 -24 34q0 16 11.5 27t26.5 11t26 -11t11 -27q0 -23 -21.5 -43.5t-46.5 -30.5l-3 3q21 15 21 31z" />
    <glyph glyph-name="quotedblleft" unicode="&#x201c;" horiz-adv-x="293" 
d="M198 527l65 -178h-58l-75 178h68zM98 527l65 -178h-58l-75 178h68z" />
    <glyph glyph-name="quotedblright" unicode="&#x201d;" horiz-adv-x="293" 
d="M30 349l65 178h68l-75 -178h-58zM130 349l65 178h68l-75 -178h-58z" />
    <glyph glyph-name="bullet" unicode="&#x2022;" horiz-adv-x="277" 
d="M30 274q0 45 31.5 77t76.5 32t77 -32t32 -77t-32 -76.5t-77 -31.5t-76.5 31.5t-31.5 76.5z" />
    <glyph glyph-name="fraction" unicode="&#x2044;" horiz-adv-x="464" 
d="M472 527l-420 -527h-52l420 527h52z" />
    <glyph glyph-name="Euro" unicode="&#x20ac;" horiz-adv-x="402" 
d="M105 167h-80v62h63q-2 22 -2 35v18h-61v62h74q27 81 98.5 132t161.5 51h18v-62h-18q-60 0 -109.5 -33.5t-73.5 -87.5h78v-62h-95q-1 -8 -1 -22q0 -11 2 -31h94v-62h-73q25 -48 73 -76.5t105 -28.5h18v-62h-18q-86 0 -155 46t-99 121z" />
    <glyph glyph-name="trademark" unicode="&#x2122;" horiz-adv-x="320" 
d="M295 0h-53l-150 341v-341h-67v526h53l150 -350v350h67v-526z" />
    <glyph glyph-name="CR" horiz-adv-x="157" 
 />
    </font>
</defs>
</svg>
